<svg height="512" viewBox="0 0 64 64" width="512" xmlns="http://www.w3.org/2000/svg"><g id="down-arrow-direction-button-bottom"><path d="m32 45.484a2.989 2.989 0 0 1 -2.121-.878l-14.143-14.142a5.005 5.005 0 0 1 0-7.07 5.007 5.007 0 0 1 7.072 0l9.192 9.192 9.192-9.192a5 5 0 0 1 7.072 7.07l-14.143 14.142a2.989 2.989 0 0 1 -2.121.878zm-14.85-20.676a3 3 0 0 0 0 4.242l14.143 14.142a1 1 0 0 0 1.414 0l14.143-14.142a3 3 0 0 0 -4.244-4.242l-9.9 9.9a1 1 0 0 1 -1.414 0l-9.9-9.9a3.005 3.005 0 0 0 -4.242 0z"/><path d="m32 62a30 30 0 1 1 30-30 30.034 30.034 0 0 1 -30 30zm0-58a28 28 0 1 0 28 28 28.032 28.032 0 0 0 -28-28z"/><path d="m30 8.079a1 1 0 0 1 -.078-2c.688-.051 1.388-.079 2.078-.079a1 1 0 0 1 0 2c-.638 0-1.284.025-1.921.076z"/><path d="m7 33a1 1 0 0 1 -1-1 25.953 25.953 0 0 1 19.76-25.243 1 1 0 1 1 .48 1.943 23.959 23.959 0 0 0 -18.24 23.3 1 1 0 0 1 -1 1z"/></g></svg>