<svg preserveAspectRatio="xMidYMid meet" data-bbox="0 0 482.35 80.82" viewBox="0 0 482.36 80.83" xmlns="http://www.w3.org/2000/svg" data-type="ugc" role="presentation" aria-hidden="true">
	<g>
	    <path d="M99.66 33.81c0-16.26 9.65-24.64 24.03-24.64s24.03 8.28 24.03 24.64v25.33H135.4V33.81c0-9.27-4.93-13.7-12.32-13.7s-12.32 4.44-12.32 13.7v25.33h-11.1V33.81z" fill="#ffffff"></path>
	    <path d="M153.81 34.57c0-14.79 10.84-25.63 26.22-25.63 15.38 0 26.22 10.84 26.22 25.63S195.41 60.2 180.03 60.2c-15.38-.01-26.22-10.85-26.22-25.63m40.51 0c0-8.58-5.72-14.69-14.29-14.69s-14.39 6.11-14.39 14.69c0 8.57 5.82 14.69 14.39 14.69s14.29-6.12 14.29-14.69" fill="#ffffff"></path>
	    <path d="M254.91 35.73V9.86H266v25.91c0 9.27 4.93 13.7 12.32 13.7s12.32-4.44 12.32-13.7V9.86h12.32v25.69c0 16.27-9.66 24.64-24.05 24.64s-24.05-8.28-24.05-24.64" fill="#ffffff"></path>
	    <path d="M310.42 64.07h12.29c2.07 4.53 7.04 6.6 13.56 6.6 9.11 0 14.8-4.04 14.8-15.38v-4.24c-3.52 5.42-9.63 8.38-17.29 8.38-12.22 0-25.26-7.79-25.26-25.04 0-14.79 11.39-25.63 27.54-25.63s27.33 10.25 27.33 26.02V54.9c0 18.63-12.11 25.92-27.12 25.92-12.74 0-22.78-5.22-25.99-16.76m41.63-29.49c0-8.58-5.72-14.69-14.29-14.69-8.58 0-14.39 6.11-14.39 14.69 0 8.57 5.82 14.1 14.39 14.1 8.57-.01 14.29-5.53 14.29-14.1" fill="#ffffff"></path>
	    <path d="M246.28 9.86v11.09h-12.7c-5.62.05-9.48 2.87-9.48 10.51v27.68h-11.09V31.18c0-14.52 8.49-21.43 20.95-21.43v.11h12.32z" fill="#ffffff"></path>
	    <linearGradient y2="-5.448" x2="-5.593" y1="54.374" x1="54.228" gradientUnits="userSpaceOnUse" id="svgcid-s7cm9bt4mkws">
		<stop offset="0" stop-color="#781aff"></stop>
		<stop offset="1" stop-color="#ff16ff"></stop>
	    </linearGradient>
	    <path fill="url(#svgcid-s7cm9bt4mkws)" d="m44.71 44.85 26.61-4.1v30.71H40.61l4.1-26.61z"></path>
	    <linearGradient y2="11.661" x2="-23.933" y1="71.482" x1="35.889" gradientUnits="userSpaceOnUse" id="svgcid-sxm6zp-g9dm52">
		<stop offset="0" stop-color="#781aff"></stop>
		<stop offset="1" stop-color="#ff16ff"></stop>
	    </linearGradient>
	    <path fill="url(#svgcid-sxm6zp-g9dm52)" d="m0 44.71 35.76-9.08-9.15 35.69H0V44.71z"></path>
	    <linearGradient y2="-23.383" x2="12.342" y1="36.438" x1="72.164" gradientUnits="userSpaceOnUse" id="svgcid-1x09vb-jmagih">
		<stop offset="0" stop-color="#781aff"></stop>
		<stop offset="1" stop-color="#ff16ff"></stop>
	    </linearGradient>
	    <path fill="url(#svgcid-1x09vb-jmagih)" d="M44.71 0h26.61v26.61l-35.56 9.02L44.71 0z"></path>
	    <linearGradient y2="-6.064" x2="-6.064" y1="53.758" x1="53.758" gradientUnits="userSpaceOnUse" id="svgcid--3y22d6xr843c">
		<stop offset="0" stop-color="#781aff"></stop>
		<stop offset="1" stop-color="#ff16ff"></stop>
	    </linearGradient>
	    <path fill="url(#svgcid--3y22d6xr843c)" d="M0 0h30.71l-4.1 26.61L0 30.71V0z"></path>
	    <path d="M381.35 38.93c0-3.2 2.42-5.62 5.62-5.62s5.62 2.42 5.62 5.62-2.42 5.62-5.62 5.62-5.62-2.42-5.62-5.62" fill="#781aff"></path>
	    <path d="M408.46 38.13c0-5.7 4.18-9.87 10.1-9.87 5.09 0 8.81 3.08 9.72 7.52h-4.56c-.8-2.01-2.7-3.3-5.17-3.3-3.3 0-5.54 2.35-5.54 5.66 0 3.3 2.24 5.66 5.54 5.66 2.47 0 4.37-1.29 5.17-3.31h4.56c-.91 4.44-4.63 7.52-9.72 7.52-5.92-.01-10.1-4.18-10.1-9.88" fill="#ffffff"></path>
	    <path d="M430.49 38.13c0-5.7 4.18-9.87 10.1-9.87s10.1 4.18 10.1 9.87-4.18 9.87-10.1 9.87c-5.93 0-10.1-4.17-10.1-9.87m15.6 0c0-3.3-2.2-5.66-5.51-5.66-3.3 0-5.54 2.35-5.54 5.66 0 3.3 2.24 5.66 5.54 5.66 3.31 0 5.51-2.36 5.51-5.66" fill="#ffffff"></path>
	    <path d="M453.65 36.8c0-5.88 3.42-8.54 7.86-8.54 2.81 0 5.13 1.18 6.49 3.38 1.33-2.2 3.65-3.38 6.49-3.38 4.44 0 7.86 2.66 7.86 8.54v10.71h-4.52V36.8c0-3.08-1.59-4.33-3.8-4.33-2.16 0-3.76 1.29-3.76 4.33v10.71h-4.52V36.8c0-3.04-1.63-4.33-3.8-4.33-2.2 0-3.8 1.25-3.8 4.33v10.71h-4.52V36.8z" fill="#ffffff"></path>
	</g>
    </svg>